<?xml version="1.0" encoding="UTF-8"?>
<!-- Generator: Adobe Illustrator 23.0.0, SVG Export Plug-In . SVG Version: 6.00 Build 0)  -->
<svg version="1.1" id="Layer_1" xmlns="http://www.w3.org/2000/svg" xmlns:xlink="http://www.w3.org/1999/xlink" x="0px" y="0px" width="1366px" height="768px" viewBox="0 0 1366 768" style="enable-background:new 0 0 1366 768;" xml:space="preserve">
<style type="text/css">
	.st0{fill:#F6F6F6;}
	.st1{fill:none;}
	.st2{fill:#EDEDED;}
	.st3{fill:#E0E0E0;}
</style>
<path class="st0" d="M0,127.6c0,0,21.8-17,64.7-13c13.1,1.2,28.2,3.2,45.2,6.2c19.8,3.5,42.2,21.5,67.2,28.5C294,182,0,224,0,224  V127.6z"/>
<g>
	<path class="st1" d="M1366,169.6c-15.2-4-57.2-26.5-92.9-37C1308.7,143,1350.4,165.5,1366,169.6L1366,169.6z"/>
	<path class="st0" d="M1366,138.2c-28.3-10.7-55.4-17.8-71.4-13.8c-8.3,2.1-15.1,5-21.5,8.2c35.7,10.5,77.7,33,92.9,37V138.2z"/>
	<path class="st0" d="M302.1,172.2c2.6,2.4,6.7,4,12,5.1c23.4,4.5,68.9-1.2,105,8c44.4,11.3,92.9,7.5,171.8-15.1   c78.9-22.6,147.5,7.5,182,9.4c34.4,1.9,89,22.6,157.7-1.9s149.6-10.1,184-10.1c20.8,0,46-8.3,69.9-18.2c-4.2-1.2-8.6-2.7-13.4-4.4   c-70.7-26.4-103.1-60.2-175.9-41.4s-82.9,27-115.3,17.6c-32.4-9.4-62.7-13.2-103.1-5.6c-40.4,7.5-70.7,41.4-109.2,33.9   c-38.3-7.5-87-22.6-119.2-30.1c-32.4-7.5-46.5-3.8-82.9,3.8c-36.5,7.5-119.2,11.3-141.4,22.6c-9.2,4.8-22.1,10.7-34.5,16.2   c0,0,0.1,0.1,0.1,0.1C294.7,165.8,299.1,169.3,302.1,172.2z"/>
	<path class="st2" d="M295.7,222.9c64.6-9.4,157.6-25.1,194-15.7s107.2,17.6,139.6,25.1c32.4,7.6,66.8,24.5,109.2,24.5   c42.6,0,127.4-1.9,165.8,11.3c38.5,13.2,109.2,30.1,186,0c76.8-30.1,107.2-32,216.4,0c22,6.4,41.7,11.1,59.2,14.3V169.7   c-15.6-4.2-57.3-26.6-92.9-37.1c-18.2-5.3-34.6-7.5-45.2-2.6c-12.8,5.9-27.7,13.1-43.3,19.5c-23.8,9.9-49.1,18.2-69.9,18.2   c-34.4,0-115.3-14.4-184,10.1s-123.3,3.8-157.7,1.9c-34.4-1.9-103.1-32-182-9.4c-78.9,22.6-127.4,26.4-171.8,15.1   c-36.2-9.2-81.9-3.4-105.2-8.1c-5.4-1.1-9.7-2.6-12.3-5.1c-3-2.9-7.4-6.4-12.5-10.1c0.1,0,0.1-0.1,0.2-0.1   c-18.3-13.2-47.6-14.5-74.4-11.6c-34.4,3.8-127.4-16.9-153.6-1.9C41.3,160.1,21.1,175,0,182.1v116.2c14-4.3,38.7-11.5,68.3-19.7   c23-6.4,49.1-13.5,75.4-20.4C203.8,242.4,265.3,227.3,295.7,222.9z"/>
	<path class="st2" d="M301.8,172.2c2.7,2.5,6.9,4.1,12.3,5.1c-5.3-1.1-9.4-2.7-12-5.1c-3-2.9-7.4-6.4-12.5-10.1c0,0-0.1-0.1-0.1-0.1   c-0.1,0-0.1,0.1-0.2,0.1C294.4,165.8,298.8,169.3,301.8,172.2z"/>
	<path class="st3" d="M1306.9,268.2c-109.2-32-139.6-30.1-216.4,0c-76.8,30.1-147.7,13.2-186,0C866,255,781.1,256.9,738.7,256.9   c-42.6,0-76.8-17-109.2-24.5c-32.4-7.5-112.1-18.7-148.6-28.1C444.6,194.9,324,226,245,213c-60.8-10-195.4,70.2-245,85.5V772h1366   V282.5C1348.5,279.2,1328.8,274.6,1306.9,268.2z"/>
	<path class="st3" d="M1306.8,268.1c-109.2-32-139.6-30.1-216.4,0c-76.8,30.1-147.5,13.2-186,0c-38.5-13.2-123.3-11.3-165.8-11.3   c-42.4,0-76.8-16.9-109.2-24.5c-32.4-7.5-103.1-15.7-139.6-25.1s-129.4,6.3-194,15.7C234.8,231.8,49.8,283.1,0,298.4v-23.9   c81-7.5,234.9-42.6,295.9-51.5c64.6-9.4,157.7-25.1,194-15.7c36.5,9.4,107.2,17.6,139.6,25.1c32.4,7.5,66.7,24.5,109.2,24.5   c42.4,0,127.4-1.9,165.8,11.3c38.3,13.2,109.2,30.1,186,0c76.8-30.1,107.2-32,216.4,0c21.9,6.4,41.6,11,59.1,14.3v-0.1   C1348.5,279.2,1328.7,274.5,1306.8,268.1z"/>
</g>
</svg>